<svg width="566" height="538" viewBox="0 0 566 538" fill="none" xmlns="http://www.w3.org/2000/svg">
<path d="M134.5 150V142.5H127H65C33.2436 142.5 7.5 168.244 7.5 200V345C7.5 376.756 33.2436 402.5 65 402.5H127H134.5V395V150Z" fill="url(#paint0_linear_72_41)" stroke="black" stroke-width="15"/>
<mask id="path-2-outside-1_72_41" maskUnits="userSpaceOnUse" x="112" y="0" width="432" height="538" fill="black">
<rect fill="white" x="112" width="432" height="538"/>
<path fill-rule="evenodd" clip-rule="evenodd" d="M227 15C171.772 15 127 59.7715 127 115V410V473C127 500.614 149.386 523 177 523H242C269.614 523 292 500.614 292 473V415C292 412.239 294.239 410 297 410H359C361.761 410 364 412.239 364 415V473C364 500.614 386.386 523 414 523H479C506.614 523 529 500.614 529 473V410V115C529 59.7715 484.228 15 429 15H227Z"/>
</mask>
<path fill-rule="evenodd" clip-rule="evenodd" d="M227 15C171.772 15 127 59.7715 127 115V410V473C127 500.614 149.386 523 177 523H242C269.614 523 292 500.614 292 473V415C292 412.239 294.239 410 297 410H359C361.761 410 364 412.239 364 415V473C364 500.614 386.386 523 414 523H479C506.614 523 529 500.614 529 473V410V115C529 59.7715 484.228 15 429 15H227Z" fill="url(#paint1_linear_72_41)"/>
<path d="M142 115C142 68.0558 180.056 30 227 30V0C163.487 0 112 51.4872 112 115H142ZM142 410V115H112V410H142ZM112 410V473H142V410H112ZM112 473C112 508.898 141.101 538 177 538V508C157.67 508 142 492.33 142 473H112ZM177 538H242V508H177V538ZM242 538C277.899 538 307 508.898 307 473H277C277 492.33 261.33 508 242 508V538ZM307 473V415H277V473H307ZM359 395H297V425H359V395ZM349 415V473H379V415H349ZM349 473C349 508.898 378.102 538 414 538V508C394.67 508 379 492.33 379 473H349ZM414 538H479V508H414V538ZM479 538C514.898 538 544 508.898 544 473H514C514 492.33 498.33 508 479 508V538ZM544 473V410H514V473H544ZM514 115V410H544V115H514ZM429 30C475.944 30 514 68.0558 514 115H544C544 51.4873 492.513 0 429 0V30ZM227 30H429V0H227V30ZM359 425C353.477 425 349 420.523 349 415H379C379 403.954 370.046 395 359 395V425ZM307 415C307 420.523 302.523 425 297 425V395C285.954 395 277 403.954 277 415H307Z" fill="black" mask="url(#path-2-outside-1_72_41)"/>
<rect x="253.5" y="130.5" width="305" height="183" rx="37.5" fill="url(#paint2_linear_72_41)"/>
<rect x="253.5" y="130.5" width="305" height="183" rx="37.5" fill="url(#paint3_linear_72_41)" fill-opacity="0.7"/>
<rect x="253.5" y="130.5" width="305" height="183" rx="37.5" stroke="black" stroke-width="15"/>
<path fill-rule="evenodd" clip-rule="evenodd" d="M418 171C418 165.477 422.477 161 428 161H499C515.569 161 529 174.431 529 191V209C529 214.523 524.523 219 519 219C513.477 219 509 214.523 509 209V191C509 185.477 504.523 181 499 181H428C422.477 181 418 176.523 418 171Z" fill="white" style="mix-blend-mode:overlay"/>
<mask id="path-6-outside-2_72_41" maskUnits="userSpaceOnUse" x="0" y="0" width="566" height="538" fill="black">
<rect fill="white" width="566" height="538"/>
<path fill-rule="evenodd" clip-rule="evenodd" d="M227 15C171.772 15 127 59.7715 127 115V145C127 147.761 124.761 150 122 150H65C37.3858 150 15 172.386 15 200V345C15 372.614 37.3858 395 65 395H122C124.761 395 127 397.239 127 400V410V473C127 500.614 149.386 523 177 523H242C269.614 523 292 500.614 292 473V415C292 412.239 294.239 410 297 410H359C361.761 410 364 412.239 364 415V473C364 500.614 386.386 523 414 523H479C506.614 523 529 500.614 529 473V410V308.728C529 306.479 530.521 304.547 532.596 303.677C543.407 299.142 551 288.458 551 276V168C551 155.542 543.406 144.858 532.595 140.323C530.521 139.453 529 137.521 529 135.272V115C529 59.7715 484.228 15 429 15H227Z"/>
</mask>
<path fill-rule="evenodd" clip-rule="evenodd" d="M227 15C171.772 15 127 59.7715 127 115V145C127 147.761 124.761 150 122 150H65C37.3858 150 15 172.386 15 200V345C15 372.614 37.3858 395 65 395H122C124.761 395 127 397.239 127 400V410V473C127 500.614 149.386 523 177 523H242C269.614 523 292 500.614 292 473V415C292 412.239 294.239 410 297 410H359C361.761 410 364 412.239 364 415V473C364 500.614 386.386 523 414 523H479C506.614 523 529 500.614 529 473V410V308.728C529 306.479 530.521 304.547 532.596 303.677C543.407 299.142 551 288.458 551 276V168C551 155.542 543.406 144.858 532.595 140.323C530.521 139.453 529 137.521 529 135.272V115C529 59.7715 484.228 15 429 15H227Z" fill="url(#paint4_linear_72_41)" fill-opacity="0.3" style="mix-blend-mode:screen"/>
<path d="M532.595 140.323L526.793 154.155L532.595 140.323ZM532.596 303.677L538.398 317.509L532.596 303.677ZM142 115C142 68.0558 180.056 30 227 30V0C163.487 0 112 51.4872 112 115H142ZM142 145V115H112V145H142ZM65 165H122V135H65V165ZM30 200C30 180.67 45.67 165 65 165V135C29.1015 135 0 164.102 0 200H30ZM30 345V200H0V345H30ZM65 380C45.67 380 30 364.33 30 345H0C0 380.898 29.1015 410 65 410V380ZM122 380H65V410H122V380ZM142 410V400H112V410H142ZM142 473V410H112V473H142ZM177 508C157.67 508 142 492.33 142 473H112C112 508.898 141.101 538 177 538V508ZM242 508H177V538H242V508ZM277 473C277 492.33 261.33 508 242 508V538C277.899 538 307 508.898 307 473H277ZM277 415V473H307V415H277ZM359 395H297V425H359V395ZM379 473V415H349V473H379ZM414 508C394.67 508 379 492.33 379 473H349C349 508.898 378.102 538 414 538V508ZM479 508H414V538H479V508ZM514 473C514 492.33 498.33 508 479 508V538C514.898 538 544 508.898 544 473H514ZM514 410V473H544V410H514ZM514 308.728V410H544V308.728H514ZM536 276C536 282.205 532.228 287.565 526.793 289.845L538.398 317.509C554.585 310.72 566 294.71 566 276H536ZM536 168V276H566V168H536ZM526.793 154.155C532.228 156.435 536 161.795 536 168H566C566 149.29 554.585 133.28 538.398 126.491L526.793 154.155ZM514 115V135.272H544V115H514ZM429 30C475.944 30 514 68.0558 514 115H544C544 51.4873 492.513 0 429 0V30ZM227 30H429V0H227V30ZM538.398 126.491C540.854 127.521 544 130.423 544 135.272H514C514 144.618 520.189 151.385 526.793 154.155L538.398 126.491ZM544 308.728C544 313.577 540.854 316.479 538.398 317.509L526.793 289.845C520.189 292.615 514 299.382 514 308.728H544ZM359 425C353.477 425 349 420.523 349 415H379C379 403.954 370.046 395 359 395V425ZM112 145C112 139.477 116.477 135 122 135V165C133.046 165 142 156.046 142 145H112ZM307 415C307 420.523 302.523 425 297 425V395C285.954 395 277 403.954 277 415H307ZM122 410C116.477 410 112 405.523 112 400H142C142 388.954 133.046 380 122 380V410Z" fill="url(#paint5_linear_72_41)" fill-opacity="0.3" style="mix-blend-mode:lighten" mask="url(#path-6-outside-2_72_41)"/>
<defs>
<linearGradient id="paint0_linear_72_41" x1="15" y1="272.5" x2="127" y2="272.5" gradientUnits="userSpaceOnUse">
<stop stop-color="#EB625D"/>
<stop offset="0.175" stop-color="#FF0000"/>
<stop offset="0.5" stop-color="#FF0000"/>
<stop offset="1" stop-color="#C00000"/>
</linearGradient>
<linearGradient id="paint1_linear_72_41" x1="127" y1="269" x2="529" y2="269" gradientUnits="userSpaceOnUse">
<stop stop-color="#EB625D"/>
<stop offset="0.134938" stop-color="#FF0000"/>
<stop offset="0.905" stop-color="#C00000"/>
<stop offset="1" stop-color="#E3704D"/>
</linearGradient>
<linearGradient id="paint2_linear_72_41" x1="261" y1="222" x2="551" y2="222" gradientUnits="userSpaceOnUse">
<stop stop-color="#00C8FF"/>
<stop offset="1" stop-color="#8FE4FB"/>
</linearGradient>
<linearGradient id="paint3_linear_72_41" x1="508" y1="222" x2="521" y2="330.5" gradientUnits="userSpaceOnUse">
<stop stop-color="#FFE1C4" stop-opacity="0"/>
<stop offset="1" stop-color="#FEC994"/>
</linearGradient>
<linearGradient id="paint4_linear_72_41" x1="517.5" y1="15" x2="129" y2="523" gradientUnits="userSpaceOnUse">
<stop offset="0.115" stop-color="#99CEF9"/>
<stop offset="1" stop-color="#310350"/>
</linearGradient>
<linearGradient id="paint5_linear_72_41" x1="520" y1="15" x2="127.5" y2="523" gradientUnits="userSpaceOnUse">
<stop offset="0.12" stop-color="#99CEF9"/>
<stop offset="1" stop-color="#310350"/>
</linearGradient>
</defs>
</svg>
