<svg width="157" height="56" viewBox="0 0 157 56" fill="none" xmlns="http://www.w3.org/2000/svg">
<g filter="url(#filter0_d_42_4)">
<path d="M37.8851 13.6612C11.0812 13.6612 0.95188 26.6212 4.78101 28.7012C5.73829 28.7012 8.84756 28.7012 8.84756 28.7012C8.84756 28.7012 9.50317 27.2533 10.1239 26.4612C11.2408 25.1812 12.3576 25.9812 16.6654 23.1012C18.4204 21.5012 20.9731 18.7812 22.8877 18.3012C24.3236 17.7131 26.8764 16.8612 36.2896 16.3812C55.5948 16.0612 57.2933 16.7974 70.7518 16.7012C78.3541 16.6468 88.7806 16.3812 91.6525 16.3812C93.8861 15.9012 91.9715 14.1412 89.7379 14.4612C84.9515 14.4612 81.2819 14.7812 78.2505 14.7812C76.4955 13.6612 79.1744 11.2115 82.7178 7.42116C85.111 4.86116 91.1738 5.72813 98.9916 5.18116C107.926 5.18116 108.564 5.39351 111.755 5.98116C117.02 7.42116 122.126 9.18116 117.18 10.9412C116.072 11.3354 116.861 11.2612 111.755 11.5812C109.043 11.5812 105.693 12.0612 106.809 13.6612C115.744 13.6612 122.285 13.1812 132.496 13.1812C140.474 13.6612 148.368 15.7412 149.089 18.7812C149.887 22.1412 149.408 22.3012 149.408 25.1812C149.408 27.1012 149.008 28.964 150.685 29.0212C152.361 29.0783 152.28 27.9012 152.28 25.1812C152.28 21.3412 151.483 20.2212 150.685 16.3812C149.717 14.7426 148.502 14.4048 147.653 12.7012C146.805 10.9975 148.132 9.98116 146.696 9.18116C144.303 8.38116 140.998 8.21544 137.442 7.42116C122.924 4.54116 117.18 -0.619259 101.066 0.0611592C85.9088 0.701159 63.4126 8.70116 59.9026 10.3012C58.9637 10.7292 56.8712 13.4937 60.5408 12.3812C67.4013 10.3012 75.6978 5.98116 76.9741 7.42116C76.9741 9.82116 70.7518 14.7812 66.7631 14.4612C53.5207 13.6612 37.8851 13.6612 37.8851 13.6612Z" fill="#F4F6F5"/>
<path d="M23.2068 22.9052C21.8905 24.167 20.1754 26.378 19.8563 25.2885C19.6356 24.535 19.881 24.0356 20.654 23.0454C21.4515 22.0238 22.1896 21.4846 23.3663 20.8023C25.3466 19.6541 26.8999 19.438 29.2696 19.5406C32.6929 19.6887 35.6514 21.9239 36.6087 23.0454C37.566 24.167 38.0446 25.5689 37.566 25.7091C35.811 25.7091 33.7475 22.4116 31.5032 21.7837C28.7909 21.0248 24.9618 21.2229 23.2068 22.9052Z" fill="#F4F6F5"/>
<path d="M73.9427 22.6248C88.302 22.6248 112.394 23.7464 112.872 23.466C113.351 23.1856 116.701 14.2132 130.422 14.774C136.006 14.774 142.867 17.8582 145.739 22.064C146.581 23.5525 149.046 26.7942 147.175 26.5503C145.42 25.8493 145.362 24.8679 143.186 23.1856C135.209 17.0171 120.69 18.9798 117.02 27.812C116.063 30.3355 116.223 31.0365 115.744 31.8776C115.265 32.7188 114.468 31.8776 113.51 30.7561C112.654 28.6864 112.394 28.513 110.958 27.2512C108.564 25.6969 104.895 25.4287 97.077 24.7277C90.5356 24.7277 86.3173 24.8336 79.5269 24.7277C75.2266 24.6607 73.4641 24.4473 69.4754 24.4473C68.3586 24.4473 66.9227 24.7277 65.6463 23.8866C64.689 22.6248 72.5068 22.6248 73.9427 22.6248Z" fill="#F4F6F5"/>
<path fill-rule="evenodd" clip-rule="evenodd" d="M132.177 48C140.548 48 147.334 42.0371 147.334 34.6816C147.334 27.326 140.548 21.3631 132.177 21.3631C123.806 21.3631 117.02 27.326 117.02 34.6816C117.02 42.0371 123.806 48 132.177 48ZM132.337 42.1118C136.919 42.1118 140.633 38.8479 140.633 34.8217C140.633 30.7955 136.919 27.5316 132.337 27.5316C127.755 27.5316 124.04 30.7955 124.04 34.8217C124.04 38.8479 127.755 42.1118 132.337 42.1118Z" fill="#F60D09"/>
<path fill-rule="evenodd" clip-rule="evenodd" d="M97.2366 30.9359C97.2366 30.7592 97.3795 30.6159 97.5557 30.6159H106.558C112.021 30.6159 116.449 34.5075 116.449 39.3079C116.449 44.1084 112.021 48 106.558 48H97.5557C97.3795 48 97.2366 47.8567 97.2366 47.68V30.9359ZM102.661 35.1417C102.661 34.965 102.804 34.8217 102.98 34.8217H104.895V34.8278C108.095 34.9506 110.639 36.9095 110.639 39.3079C110.639 41.7064 108.095 43.6653 104.895 43.7881V43.7942H102.98C102.804 43.7942 102.661 43.6509 102.661 43.4742V35.1417Z" fill="#F60D09"/>
<path fill-rule="evenodd" clip-rule="evenodd" d="M78.4101 30.6159C78.2338 30.6159 78.091 30.7592 78.091 30.9359V47.68C78.091 47.8567 78.2338 48 78.4101 48H83.7339C83.9101 48 84.053 47.8567 84.053 47.68V41.2893C84.053 41.279 84.0613 41.2707 84.0716 41.2707C84.0796 41.2707 84.0866 41.2758 84.0895 41.2833C84.1011 41.3136 84.1178 41.3431 84.1401 41.3708L89.2568 47.7405C89.3174 47.8159 89.4087 47.8598 89.5053 47.8598H95.1446C95.4127 47.8598 95.5613 47.5484 95.3932 47.339L90.2764 40.9693C90.2582 40.9466 90.2665 40.909 90.2945 40.901C93.0432 40.1117 94.9834 38.1927 94.9834 35.9507C94.9834 33.0044 91.6329 30.6159 87.4998 30.6159C87.455 30.6159 87.4099 30.6158 87.3652 30.6163L78.4101 30.6159ZM84.053 38.709C84.0538 38.8851 84.1963 39.0276 84.3721 39.0276H86.0403C87.6867 39.0276 89.0214 38.0233 89.0214 36.7845C89.0214 35.5456 87.6867 34.5413 86.0403 34.5413H84.3721C84.1963 34.5413 84.0538 34.6838 84.053 34.8599V38.709Z" fill="#F60D09"/>
<path fill-rule="evenodd" clip-rule="evenodd" d="M62.5852 30.7921C62.6393 30.6841 62.7496 30.6159 62.8702 30.6159H68.1033C68.2239 30.6159 68.3342 30.6841 68.3883 30.7921L76.7531 47.4661C76.8598 47.6789 76.7056 47.9299 76.468 47.9299H71.4153C71.2948 47.9299 71.1845 47.8617 71.1303 47.7537L69.6543 44.8115C69.6001 44.7035 69.4898 44.6353 69.3692 44.6353H61.6043C61.4837 44.6353 61.3734 44.7035 61.3192 44.8115L59.8432 47.7537C59.789 47.8617 59.6788 47.9299 59.5582 47.9299H54.5055C54.2679 47.9299 54.1137 47.6789 54.2204 47.4661L62.5852 30.7921ZM63.3282 40.8069C63.2214 41.0197 63.3757 41.2707 63.6133 41.2707H67.3603C67.5978 41.2707 67.7521 41.0197 67.6453 40.8069L65.7718 37.0723C65.654 36.8374 65.3195 36.8374 65.2017 37.0723L63.3282 40.8069Z" fill="#F60D09"/>
<path d="M52.2444 46.8454C52.2444 46.9778 52.1632 47.0969 52.0392 47.1423C50.5397 47.692 48.8582 48 47.0821 48C40.7691 48 35.6515 44.1084 35.6515 39.3079C35.6515 34.5075 40.7691 30.6159 47.0821 30.6159C48.8582 30.6159 50.5397 30.9239 52.0392 31.4736C52.1632 31.519 52.2444 31.6381 52.2444 31.7705V35.6437C52.2444 35.9173 51.9174 36.0724 51.6896 35.9217C50.6537 35.2366 49.3004 34.8217 47.8196 34.8217C44.5613 34.8217 41.9199 36.8303 41.9199 39.3079C41.9199 41.7856 44.5613 43.7942 47.8196 43.7942C49.3004 43.7942 50.6537 43.3793 51.6896 42.6941C51.9174 42.5435 52.2444 42.6986 52.2444 42.9722V46.8454Z" fill="#F60D09"/>
<path d="M27.355 31.7771C27.355 31.6003 27.4979 31.4571 27.6741 31.4571H33.7369C33.9131 31.4571 34.056 31.6003 34.056 31.7771V47.68C34.056 47.8567 33.9131 48 33.7369 48H27.6741C27.4979 48 27.355 47.8567 27.355 47.68V31.7771Z" fill="#F60D09"/>
<path fill-rule="evenodd" clip-rule="evenodd" d="M7.12329 29.214C6.94706 29.214 6.80419 29.3572 6.80419 29.534V47.68C6.80419 47.8567 6.94706 48 7.12329 48H12.9279C13.1042 48 13.247 47.8567 13.247 47.68L13.247 40.7396C13.247 40.7332 13.2522 40.728 13.2586 40.728C13.263 40.728 13.2671 40.7306 13.2691 40.7346C13.2793 40.7551 13.292 40.7751 13.3074 40.7943L18.8782 47.7293C18.9388 47.8047 19.0302 47.8485 19.1267 47.8485H25.2869C25.555 47.8485 25.7036 47.5371 25.5354 47.3278L19.9646 40.3928C19.9482 40.3722 19.956 40.3388 19.9812 40.3316C22.9573 39.4805 25.0589 37.4047 25.0589 34.979C25.0589 31.795 21.4382 29.214 16.9718 29.214C16.9234 29.214 16.8746 29.2138 16.8264 29.2144L7.12329 29.214ZM13.247 37.9873V33.7726C13.2488 33.5974 13.391 33.456 13.5661 33.456H15.3946C17.1738 33.456 18.616 34.5412 18.616 35.88C18.616 37.2187 17.1738 38.304 15.3946 38.304H13.5661C13.391 38.304 13.2488 38.1625 13.247 37.9873Z" fill="#F60D09"/>
</g>
<defs>
<filter id="filter0_d_42_4" x="0.00012207" y="0" width="156.281" height="56" filterUnits="userSpaceOnUse" color-interpolation-filters="sRGB">
<feFlood flood-opacity="0" result="BackgroundImageFix"/>
<feColorMatrix in="SourceAlpha" type="matrix" values="0 0 0 0 0 0 0 0 0 0 0 0 0 0 0 0 0 0 127 0" result="hardAlpha"/>
<feOffset dy="4"/>
<feGaussianBlur stdDeviation="2"/>
<feComposite in2="hardAlpha" operator="out"/>
<feColorMatrix type="matrix" values="0 0 0 0 0 0 0 0 0 0 0 0 0 0 0 0 0 0 0.25 0"/>
<feBlend mode="normal" in2="BackgroundImageFix" result="effect1_dropShadow_42_4"/>
<feBlend mode="normal" in="SourceGraphic" in2="effect1_dropShadow_42_4" result="shape"/>
</filter>
</defs>
</svg>
