<svg width="60" height="67" viewBox="0 0 60 67" fill="none" xmlns="http://www.w3.org/2000/svg">
<path fill-rule="evenodd" clip-rule="evenodd" d="M1.59631 0C1.04403 0 0.596313 0.447714 0.596313 0.999999V66C0.596313 66.5523 1.04403 67 1.59631 67H19.7874C20.3396 67 20.7874 66.5523 20.7874 66L20.7873 41.0793C20.7873 41.0711 20.794 41.0645 20.8021 41.0645C20.8069 41.0645 20.8114 41.0669 20.8142 41.0708L38.4361 66.0363C38.6235 66.3018 38.9282 66.4597 39.2531 66.4597H58.6787C59.4895 66.4597 59.9633 65.5454 59.4957 64.883L41.8381 39.8669C41.7848 39.7914 41.8119 39.6766 41.8997 39.648C51.2219 36.611 57.8043 29.2094 57.8043 20.5607C57.8043 9.20534 46.4574 0 32.4603 0C32.3086 0 32.1573 0.00108092 32.0062 0.00323378C32.0053 0.00324664 32.0046 0.00251902 32.0046 0.00161695C32.0046 0.000723934 32.0039 0 32.003 0H20.7874H1.59631ZM20.7874 16.129V17.3304V30.218V31.4194C20.7874 31.9716 21.2351 32.4194 21.7874 32.4194H27.5177C33.0933 32.4194 37.6132 28.5488 37.6132 23.7742C37.6132 18.9996 33.0933 15.129 27.5177 15.129H21.7874C21.2351 15.129 20.7874 15.5767 20.7874 16.129Z" fill="#F60D09"/>
</svg>
